<svg width="32" height="32" viewBox="0 0 32 32" fill="none" xmlns="http://www.w3.org/2000/svg">
<rect width="32" height="32" rx="6" fill="#1E3A8A"/>
<path d="M8 8C10.2091 8 12 9.79086 12 12V20C12 22.2091 10.2091 24 8 24H6.5C7.2 23.2 7.6 22.2 7.8 21C8.2 19.2 8.4 17.2 8.4 15C8.4 12.8 8.2 10.8 7.8 9C7.6 7.8 7.2 6.8 6.5 6H8ZM8 10.4C9.2 10.4 10.2 10.6 11 11C11.8 11.4 12.4 12 12.8 12.8C13.2 13.6 13.4 14.6 13.4 15.8C13.4 16.8 13.4 17.8 13.4 18.8C13.4 19.8 13.2 20.8 12.8 21.6C12.4 22.4 11.8 23 11 23.4C10.2 23.8 9.2 24 8 24C6.8 24 5.8 23.8 5 23.4C4.2 23 3.6 22.4 3.2 21.6C2.8 20.8 2.6 19.8 2.6 18.8C2.6 17.8 2.6 16.8 2.6 15.8C2.6 14.6 2.8 13.6 3.2 12.8C3.6 12 4.2 11.4 5 11C5.8 10.6 6.8 10.4 8 10.4Z" fill="white"/>
<path d="M18 24H16C15.6 24 15.2 23.8 14.8 23.4L16.8 20.4L18 24ZM24 8C25.1046 8 26 8.89543 26 10V22C26 23.1046 25.1046 24 24 24H20.8L18.4 18.8L20.8 13.2C21 12.8 21.2 12.4 21.2 12C21.2 11.6 21 11.2 20.8 10.8C20.4 10.4 20 10.2 19.6 10.2H18.4C17.6 10.2 17 10.6 16.8 11.2L15.6 13.2L14.4 11.2C14.2 10.6 13.6 10.2 12.8 10.2H12C12 8.89543 12.8954 8 14 8H24ZM14.4 18.8L12 22.8V16.4L14.4 18.8Z" fill="white"/>
<path fill-rule="evenodd" clip-rule="evenodd" d="M26 8C24.8954 8 24 8.89543 24 9C24.1 9.1 24.2 9.2 24.3 9.3C24.6 9.6 24.8 9.8 24.9 10L27.9 16L30.9 10C31 9.8 31.2 9.6 31.5 9.3C32.1 8.7 33 8.4 34 8.4H36C36.4 8.4 36.8 8.6 37.2 8.8C37.6 9 37.8 9.2 37.8 9.4C37.8 9.6 37.7 9.8 37.5 10L32.5 20V24H38C39.1046 24 40 23.1046 40 22V10C40 8.89543 39.1046 8 38 8H26ZM25.5 24V20L24 17.6V22C24 23.1 24.4 23.8 25.5 24Z" fill="white"/>
</svg>
