<svg width="420" height="170" viewBox="0 0 420 170" fill="none" xmlns="http://www.w3.org/2000/svg">
<path d="M125 15C133.284 15 140 21.7157 140 30V140C140 148.284 133.284 155 125 155H86.0742C91.0173 151.501 95.1269 147.169 98.4004 142C103.467 133.867 106.266 123.733 106.8 111.6C107.066 105.867 107.2 100.133 107.2 94.4004C107.2 88.6671 107.066 82.8667 106.8 77C106.4 65 103.6 54.9331 98.4004 46.7998C93.2004 38.5331 85.9998 32.3335 76.7998 28.2002C67.7332 24.0669 57.2001 22 45.2002 22C33.067 22 22.467 24.0669 13.4004 28.2002C8.32856 30.5124 3.86187 33.4716 0 37.0771V30C6.90318e-07 21.7157 6.71573 15 15 15H125ZM45.2002 50.7998C49.8666 50.7998 53.9998 51.7331 57.5996 53.5996C61.1996 55.4663 64 58.4004 66 62.4004C68.1332 66.2669 69.3329 71.3333 69.5996 77.5996C69.8663 83.1995 70 88.5999 70 93.7998C70 98.9998 69.8663 104.534 69.5996 110.4C69.3329 119.733 66.9335 126.533 62.4004 130.8C58.0004 135.066 52.2668 137.2 45.2002 137.2C38.1335 137.2 32.4 135.066 28 130.8C23.6001 126.533 21.1999 119.733 20.7998 110.4C20.6665 104.534 20.5996 98.9998 20.5996 93.7998C20.5996 88.5999 20.6665 83.1995 20.7998 77.5996C21.0665 71.3332 22.2671 66.267 24.4004 62.4004C26.5337 58.4004 29.4 55.4663 33 53.5996C36.6 51.733 40.6669 50.7998 45.2002 50.7998Z" fill="#1E3A8A"/>
<path d="M189.181 155H155C153.926 155 152.879 154.886 151.869 154.672L170.2 127.6L189.181 155ZM265 15C273.284 15 280 21.7157 280 30V140C280 148.284 273.284 155 265 155H231.514L193.2 98.4004L233.8 36.5996C234.333 35.933 234.6 35.1334 234.6 34.2002C234.6 33.1336 234.133 32.2003 233.2 31.4004C232.4 30.4671 231.4 30 230.2 30H202.8C200.8 30 199.267 30.5332 198.2 31.5996C197.134 32.5329 196.333 33.4002 195.8 34.2002L171.6 70.5996L147.6 34.2002C147.2 33.4002 146.467 32.5329 145.4 31.5996C144.334 30.5329 142.8 30 140.8 30H140C140 21.7157 146.716 15 155 15H265ZM148.6 98.5996L140 111.381V85.4014L148.6 98.5996Z" fill="#1E3A8A"/>
<path fill-rule="evenodd" clip-rule="evenodd" d="M295 15C286.716 15 280 21.7157 280 30V30.0377C280.021 30.0582 280.042 30.079 280.063 30.1C281.263 31.0333 281.997 31.9 282.263 32.7L311.063 84.3L339.863 32.7C340.263 31.9 340.997 31.0333 342.063 30.1C343.263 29.0333 344.863 28.5 346.863 28.5H371.863C373.063 28.5 374.063 28.9667 374.863 29.9C375.663 30.7 376.063 31.6333 376.063 32.7C376.063 33.1 375.997 33.5 375.863 33.9C375.863 34.1667 375.797 34.5 375.663 34.9L329.063 120.5V155H405C413.284 155 420 148.284 420 140V30C420 21.7157 413.284 15 405 15H295ZM293.063 154.876V120.5L280 96.4001V140C280 147.628 285.694 153.926 293.063 154.876Z" fill="#1E3A8A"/>
</svg>
